<?xml version="1.0" encoding="utf-8" ?>
<svg baseProfile="tiny" height="684" version="1.2" width="912" xmlns="http://www.w3.org/2000/svg" xmlns:ev="http://www.w3.org/2001/xml-events" xmlns:xlink="http://www.w3.org/1999/xlink"><defs /><line stroke="rgb(0%,0%,0%)" stroke-width="1.5" x1="800" x2="576" y1="16" y2="16" /><line stroke="rgb(0%,0%,0%)" stroke-width="1.5" x1="224" x2="176" y1="96" y2="96" /><line stroke="rgb(0%,0%,0%)" stroke-width="1.5" x1="672" x2="672" y1="96" y2="64" /><line stroke="rgb(0%,0%,0%)" stroke-width="1.5" x1="224" x2="224" y1="112" y2="96" /><line stroke="rgb(0%,0%,0%)" stroke-width="1.5" x1="304" x2="224" y1="112" y2="112" /><line stroke="rgb(0%,0%,0%)" stroke-width="1.5" x1="576" x2="576" y1="112" y2="16" /><line stroke="rgb(0%,0%,0%)" stroke-width="1.5" x1="624" x2="576" y1="112" y2="112" /><line stroke="rgb(0%,0%,0%)" stroke-width="1.5" x1="224" x2="224" y1="128" y2="112" /><line stroke="rgb(0%,0%,0%)" stroke-width="1.5" x1="384" x2="384" y1="128" y2="96" /><line stroke="rgb(0%,0%,0%)" stroke-width="1.5" x1="800" x2="800" y1="144" y2="16" /><line stroke="rgb(0%,0%,0%)" stroke-width="1.5" x1="800" x2="736" y1="144" y2="144" /><line stroke="rgb(0%,0%,0%)" stroke-width="1.5" x1="832" x2="800" y1="144" y2="144" /><line stroke="rgb(0%,0%,0%)" stroke-width="1.5" x1="304" x2="304" y1="176" y2="112" /><line stroke="rgb(0%,0%,0%)" stroke-width="1.5" x1="304" x2="288" y1="176" y2="176" /><line stroke="rgb(0%,0%,0%)" stroke-width="1.5" x1="320" x2="304" y1="176" y2="176" /><line stroke="rgb(0%,0%,0%)" stroke-width="1.5" x1="464" x2="464" y1="176" y2="144" /><line stroke="rgb(0%,0%,0%)" stroke-width="1.5" x1="464" x2="448" y1="176" y2="176" /><line stroke="rgb(0%,0%,0%)" stroke-width="1.5" x1="576" x2="464" y1="176" y2="176" /><line stroke="rgb(0%,0%,0%)" stroke-width="1.5" x1="624" x2="576" y1="176" y2="176" /><line stroke="rgb(0%,0%,0%)" stroke-width="1.5" x1="464" x2="464" y1="208" y2="176" /><line stroke="rgb(0%,0%,0%)" stroke-width="1.5" x1="576" x2="576" y1="208" y2="176" /><line stroke="rgb(0%,0%,0%)" stroke-width="1.5" x1="672" x2="672" y1="224" y2="192" /><line stroke="rgb(0%,0%,0%)" stroke-width="1.5" x1="384" x2="384" y1="272" y2="224" /><line stroke="rgb(0%,0%,0%)" stroke-width="1.5" x1="80" x2="48" y1="320" y2="320" /><line stroke="rgb(0%,0%,0%)" stroke-width="1.5" x1="192" x2="160" y1="320" y2="320" /><line stroke="rgb(0%,0%,0%)" stroke-width="1.5" x1="224" x2="224" y1="320" y2="224" /><line stroke="rgb(0%,0%,0%)" stroke-width="1.5" x1="224" x2="192" y1="320" y2="320" /><line stroke="rgb(0%,0%,0%)" stroke-width="1.5" x1="272" x2="224" y1="320" y2="320" /><line stroke="rgb(0%,0%,0%)" stroke-width="1.5" x1="320" x2="272" y1="320" y2="320" /><line stroke="rgb(0%,0%,0%)" stroke-width="1.5" x1="48" x2="48" y1="352" y2="320" /><line stroke="rgb(0%,0%,0%)" stroke-width="1.5" x1="192" x2="192" y1="352" y2="320" /><line stroke="rgb(0%,0%,0%)" stroke-width="1.5" x1="272" x2="272" y1="352" y2="320" /><line stroke="rgb(0%,0%,0%)" stroke-width="1.5" x1="464" x2="464" y1="352" y2="288" /><line stroke="rgb(0%,0%,0%)" stroke-width="1.5" x1="480" x2="464" y1="352" y2="352" /><line stroke="rgb(0%,0%,0%)" stroke-width="1.5" x1="576" x2="576" y1="352" y2="288" /><line stroke="rgb(0%,0%,0%)" stroke-width="1.5" x1="576" x2="560" y1="352" y2="352" /><line stroke="rgb(0%,0%,0%)" stroke-width="1.5" x1="384" x2="384" y1="416" y2="368" /><line stroke="rgb(0%,0%,0%)" stroke-width="1.5" x1="48" x2="48" y1="464" y2="432" /><line stroke="rgb(0%,0%,0%)" stroke-width="1.5" x1="192" x2="192" y1="464" y2="432" /><line stroke="rgb(0%,0%,0%)" stroke-width="1.5" x1="272" x2="272" y1="464" y2="416" /><line stroke="rgb(0%,0%,0%)" stroke-width="1.5" x1="464" x2="464" y1="464" y2="352" /><line stroke="rgb(0%,0%,0%)" stroke-width="1.5" x1="512" x2="464" y1="464" y2="464" /><line stroke="rgb(0%,0%,0%)" stroke-width="1.5" x1="576" x2="576" y1="464" y2="352" /><line stroke="rgb(0%,0%,0%)" stroke-width="1.5" x1="576" x2="512" y1="464" y2="464" /><line stroke="rgb(0%,0%,0%)" stroke-width="1.5" x1="512" x2="512" y1="512" y2="464" /><line stroke="rgb(0%,0%,0%)" stroke-width="1.5" x1="384" x2="384" y1="560" y2="496" /><line stroke="rgb(0%,0%,0%)" stroke-width="1.5" x1="512" x2="512" y1="608" y2="592" /><circle cx="224" cy="112" fill="black" r="3" /><circle cx="800" cy="144" fill="black" r="3" /><circle cx="304" cy="176" fill="black" r="3" /><circle cx="464" cy="176" fill="black" r="3" /><circle cx="576" cy="176" fill="black" r="3" /><circle cx="192" cy="320" fill="black" r="3" /><circle cx="224" cy="320" fill="black" r="3" /><circle cx="272" cy="320" fill="black" r="3" /><circle cx="464" cy="352" fill="black" r="3" /><circle cx="576" cy="352" fill="black" r="3" /><circle cx="512" cy="464" fill="black" r="3" /><image transform="rotate(0, 384, 96)" x="384" xlink:href="Skins/Default/FLAG.svg" y="96" /><text font-family="CMU_Serif" font-size="20px" text-anchor="middle" x="384" y="86">Vcc</text><image transform="rotate(0, 384, 560)" x="384" xlink:href="Skins/Default/FLAG.svg" y="560" /><text font-family="CMU_Serif" font-size="20px" text-anchor="middle" x="384" y="580">Vee</text><image transform="rotate(0, 192, 464)" x="192" xlink:href="Skins/Default/GND.svg" y="464" /><image transform="rotate(0, 272, 464)" x="272" xlink:href="Skins/Default/GND.svg" y="464" /><image transform="rotate(0, 48, 464)" x="48" xlink:href="Skins/Default/GND.svg" y="464" /><image transform="rotate(0, 672, 64)" x="672" xlink:href="Skins/Default/FLAG.svg" y="64" /><text font-family="CMU_Serif" font-size="20px" text-anchor="middle" x="672" y="54">Vcc</text><image transform="rotate(0, 672, 224)" x="672" xlink:href="Skins/Default/FLAG.svg" y="224" /><text font-family="CMU_Serif" font-size="20px" text-anchor="middle" x="672" y="244">Vee</text><image transform="rotate(0, 832, 144)" x="832" xlink:href="Skins/Default/FLAG.svg" y="144" /><text font-family="CMU_Serif" font-size="20px" text-anchor="middle" x="852" y="149">Vo</text><image transform="rotate(0, 176, 96)" x="176" xlink:href="Skins/Default/FLAG.svg" y="96" /><text font-family="CMU_Serif" font-size="20px" text-anchor="middle" x="156" y="101">Vi</text><image transform="rotate(0, 512, 608)" x="512" xlink:href="Skins/Default/GND.svg" y="608" /><image transform="rotate(0, 48, 336)" x="48" xlink:href="Skins/Default/voltage.svg" y="336" /><text font-family="CMU_Serif" font-size="20px" text-anchor="start" transform="rotate(0,84,382.5)" x="84" y="382.5">V1</text><text font-family="CMU_Serif" font-size="20px" text-anchor="start" transform="rotate(0,84,418.5)" x="84" y="418.5">voltage</text><image transform="rotate(270, 64, 336)" x="64" xlink:href="Skins/Default/ress.svg" y="336" /><text font-family="CMU_Serif" font-size="20px" text-anchor="middle" x="120" y="303">R1</text><text font-family="CMU_Serif" font-size="20px" text-anchor="middle" x="120" y="352">res</text><image transform="rotate(0, 176, 336)" x="176" xlink:href="Skins/Default/ind.svg" y="336" /><text font-family="CMU_Serif" font-size="20px" text-anchor="start" transform="rotate(0,212,382.5)" x="212" y="382.5">L1</text><text font-family="CMU_Serif" font-size="20px" text-anchor="start" transform="rotate(0,212,418.5)" x="212" y="418.5">ind</text><image transform="rotate(0, 256, 352)" x="256" xlink:href="Skins/Default/cap.svg" y="352" /><text font-family="CMU_Serif" font-size="20px" text-anchor="start" transform="rotate(0,280,358.5)" x="280" y="358.5">C1</text><text font-family="CMU_Serif" font-size="20px" text-anchor="start" transform="rotate(0,280,419.5)" x="280" y="419.5">cap</text><image transform="rotate(0, 320, 272)" x="320" xlink:href="Skins/Default/NPN.svg" y="272" /><text font-family="CMU_Serif" font-size="20px" text-anchor="start" transform="rotate(0,376,302.5)" x="376" y="302.5">Q1</text><text font-family="CMU_Serif" font-size="20px" text-anchor="start" transform="rotate(0,376,351.5)" x="376" y="351.5"> </text><image transform="rotate(0, 368, 400)" x="368" xlink:href="Skins/Default/ress.svg" y="400" /><text font-family="CMU_Serif" font-size="20px" text-anchor="start" transform="rotate(0,404,446.5)" x="404" y="446.5">R2</text><text font-family="CMU_Serif" font-size="20px" text-anchor="start" transform="rotate(0,404,482.5)" x="404" y="482.5">res</text><image transform="scale(-1, 1) translate(-640, 0) rotate(180, 320, 224)" x="320" xlink:href="Skins/Default/PNP.svg" y="224" /><text font-family="CMU_Serif" font-size="20px" text-anchor="start" transform="rotate(0,264,191)" x="264" y="191">Q2</text><text font-family="CMU_Serif" font-size="20px" text-anchor="start" transform="rotate(0,264,168)" x="264" y="168"> </text><image transform="rotate(0, 448, 192)" x="448" xlink:href="Skins/Default/ress.svg" y="192" /><text font-family="CMU_Serif" font-size="20px" text-anchor="start" transform="rotate(0,484,238.5)" x="484" y="238.5">R3</text><text font-family="CMU_Serif" font-size="20px" text-anchor="start" transform="rotate(0,484,274.5)" x="484" y="274.5">res</text><image transform="rotate(0, 560, 192)" x="560" xlink:href="Skins/Default/ress.svg" y="192" /><text font-family="CMU_Serif" font-size="20px" text-anchor="start" transform="rotate(0,596,238.5)" x="596" y="238.5">R4</text><text font-family="CMU_Serif" font-size="20px" text-anchor="start" transform="rotate(0,596,274.5)" x="596" y="274.5">res</text><image transform="rotate(90, 576, 336)" x="576" xlink:href="Skins/Default/ress.svg" y="336" /><text font-family="CMU_Serif" font-size="20px" text-anchor="middle" x="520" y="332">R5</text><text font-family="CMU_Serif" font-size="20px" text-anchor="middle" x="520" y="385">res</text><image transform="rotate(0, 816, 96)" x="816" xlink:href="Skins/Default/TL082.svg" y="96" /><text font-family="CMU_Serif" font-size="20px" text-anchor="start" transform="rotate(0,691,184.5)" x="691" y="184.5">U1</text><image transform="rotate(180, 288, 224)" x="288" xlink:href="Skins/Default/PNP.svg" y="224" /><text font-family="CMU_Serif" font-size="20px" text-anchor="end" transform="rotate(0,232,191)" x="232" y="191">Q3</text><text font-family="CMU_Serif" font-size="20px" text-anchor="end" transform="rotate(0,232,168)" x="232" y="168"> </text><image transform="rotate(0, 496, 496)" x="496" xlink:href="Skins/Default/ress.svg" y="496" /><text font-family="CMU_Serif" font-size="20px" text-anchor="start" transform="rotate(0,532,542.5)" x="532" y="542.5">R6</text><text font-family="CMU_Serif" font-size="20px" text-anchor="start" transform="rotate(0,532,578.5)" x="532" y="578.5">res</text></svg>