<?xml version="1.0" encoding="utf-8" ?>
<svg baseProfile="tiny" height="684" version="1.2" width="912" xmlns="http://www.w3.org/2000/svg" xmlns:ev="http://www.w3.org/2001/xml-events" xmlns:xlink="http://www.w3.org/1999/xlink"><defs /><line stroke="rgb(0%,0%,0%)" stroke-width="1.5" x1="288" x2="288" y1="64" y2="32" /><line stroke="rgb(0%,0%,0%)" stroke-width="1.5" x1="432" x2="432" y1="64" y2="32" /><line stroke="rgb(0%,0%,0%)" stroke-width="1.5" x1="192" x2="192" y1="80" y2="32" /><line stroke="rgb(0%,0%,0%)" stroke-width="1.5" x1="240" x2="240" y1="80" y2="48" /><line stroke="rgb(0%,0%,0%)" stroke-width="1.5" x1="384" x2="384" y1="80" y2="48" /><line stroke="rgb(0%,0%,0%)" stroke-width="1.5" x1="192" x2="192" y1="160" y2="128" /><line stroke="rgb(0%,0%,0%)" stroke-width="1.5" x1="240" x2="240" y1="160" y2="128" /><line stroke="rgb(0%,0%,0%)" stroke-width="1.5" x1="384" x2="384" y1="160" y2="128" /><line stroke="rgb(0%,0%,0%)" stroke-width="1.5" x1="288" x2="288" y1="176" y2="144" /><line stroke="rgb(0%,0%,0%)" stroke-width="1.5" x1="432" x2="432" y1="176" y2="144" /><line stroke="rgb(0%,0%,0%)" stroke-width="1.5" x1="544" x2="496" y1="208" y2="208" /><line stroke="rgb(0%,0%,0%)" stroke-width="1.5" x1="656" x2="608" y1="208" y2="208" /><line stroke="rgb(0%,0%,0%)" stroke-width="1.5" x1="256" x2="256" y1="256" y2="240" /><line stroke="rgb(0%,0%,0%)" stroke-width="1.5" x1="304" x2="304" y1="256" y2="240" /><line stroke="rgb(0%,0%,0%)" stroke-width="1.5" x1="304" x2="256" y1="256" y2="256" /><line stroke="rgb(0%,0%,0%)" stroke-width="1.5" x1="448" x2="448" y1="256" y2="240" /><line stroke="rgb(0%,0%,0%)" stroke-width="1.5" x1="480" x2="480" y1="256" y2="240" /><line stroke="rgb(0%,0%,0%)" stroke-width="1.5" x1="480" x2="448" y1="256" y2="256" /><line stroke="rgb(0%,0%,0%)" stroke-width="1.5" x1="496" x2="496" y1="272" y2="208" /><line stroke="rgb(0%,0%,0%)" stroke-width="1.5" x1="544" x2="496" y1="272" y2="272" /><line stroke="rgb(0%,0%,0%)" stroke-width="1.5" x1="336" x2="336" y1="288" y2="208" /><line stroke="rgb(0%,0%,0%)" stroke-width="1.5" x1="608" x2="608" y1="288" y2="208" /><line stroke="rgb(0%,0%,0%)" stroke-width="1.5" x1="656" x2="608" y1="288" y2="288" /><line stroke="rgb(0%,0%,0%)" stroke-width="1.5" x1="464" x2="464" y1="304" y2="192" /><line stroke="rgb(0%,0%,0%)" stroke-width="1.5" x1="80" x2="48" y1="320" y2="320" /><line stroke="rgb(0%,0%,0%)" stroke-width="1.5" x1="48" x2="48" y1="352" y2="320" /><line stroke="rgb(0%,0%,0%)" stroke-width="1.5" x1="208" x2="176" y1="352" y2="352" /><line stroke="rgb(0%,0%,0%)" stroke-width="1.5" x1="672" x2="640" y1="368" y2="368" /><line stroke="rgb(0%,0%,0%)" stroke-width="1.5" x1="544" x2="544" y1="400" y2="368" /><line stroke="rgb(0%,0%,0%)" stroke-width="1.5" x1="176" x2="176" y1="416" y2="352" /><line stroke="rgb(0%,0%,0%)" stroke-width="1.5" x1="208" x2="176" y1="416" y2="416" /><line stroke="rgb(0%,0%,0%)" stroke-width="1.5" x1="496" x2="496" y1="416" y2="384" /><line stroke="rgb(0%,0%,0%)" stroke-width="1.5" x1="640" x2="640" y1="432" y2="368" /><line stroke="rgb(0%,0%,0%)" stroke-width="1.5" x1="672" x2="640" y1="432" y2="432" /><line stroke="rgb(0%,0%,0%)" stroke-width="1.5" x1="48" x2="48" y1="464" y2="432" /><line stroke="rgb(0%,0%,0%)" stroke-width="1.5" x1="496" x2="496" y1="496" y2="464" /><line stroke="rgb(0%,0%,0%)" stroke-width="1.5" x1="544" x2="544" y1="512" y2="480" /><image transform="rotate(0, 48, 464)" x="48" xlink:href="Skins/Default/GND.svg" y="464" /><image transform="rotate(0, 48, 336)" x="48" xlink:href="Skins/Default/voltage.svg" y="336" /><text font-family="CMU_Serif" font-size="20px" text-anchor="start" transform="rotate(0,84,382.5)" x="84" y="382.5">V1</text><text font-family="CMU_Serif" font-size="20px" text-anchor="start" transform="rotate(0,84,418.5)" x="84" y="418.5">voltage</text><image transform="rotate(270, 64, 336)" x="64" xlink:href="Skins/Default/ress.svg" y="336" /><text font-family="CMU_Serif" font-size="20px" text-anchor="middle" x="120" y="303">R1</text><text font-family="CMU_Serif" font-size="20px" text-anchor="middle" x="120" y="352">res</text><image transform="rotate(0, 96, 112)" x="96" xlink:href="Skins/Default/74HCU04 Not.svg" y="112" /><text font-family="CMU_Serif" font-size="20px" text-anchor="start" transform="rotate(0,120,126.5)" x="120" y="126.5">U1</text><text font-family="CMU_Serif" font-size="9px" text-anchor="start" transform="rotate(0,-80,150.5)" x="-80" y="150.5">Not</text><text font-family="CMU_Serif" font-size="9px" text-anchor="start" transform="rotate(0,-80,166.5)" x="-80" y="166.5">Not</text><image transform="rotate(0, 288, 48)" x="288" xlink:href="Skins/Default/Amp_Current.svg" y="48" /><text font-family="CMU_Serif" font-size="20px" text-anchor="start" transform="rotate(0,324,94.5)" x="324" y="94.5">U2</text><text font-family="CMU_Serif" font-size="20px" text-anchor="start" transform="rotate(0,324,130.5)" x="324" y="130.5">Amp_Current</text><image transform="rotate(0, 432, 48)" x="432" xlink:href="Skins/Default/Amp_Transimpedance.svg" y="48" /><text font-family="CMU_Serif" font-size="20px" text-anchor="start" transform="rotate(0,468,94.5)" x="468" y="94.5">U3</text><text font-family="CMU_Serif" font-size="20px" text-anchor="start" transform="rotate(0,468,130.5)" x="468" y="130.5">Amp_Transimpedance</text><image transform="rotate(0, 256, 240)" x="256" xlink:href="Skins/Default/arrow.svg" y="240" /><text font-family="CMU_Serif" font-size="20px" text-anchor="start" transform="rotate(0,292,286.5)" x="292" y="286.5">X1</text><text font-family="CMU_Serif" font-size="20px" text-anchor="start" transform="rotate(0,277,222)" x="277" y="222">arrow</text><image transform="rotate(0, 448, 240)" x="448" xlink:href="Skins/Default/bypass.svg" y="240" /><image transform="rotate(0, 544, 208)" x="544" xlink:href="Skins/Default/cell.svg" y="208" /><text font-family="CMU_Serif" font-size="20px" text-anchor="start" transform="rotate(0,556,228.5)" x="556" y="228.5">V2</text><text font-family="CMU_Serif" font-size="20px" text-anchor="start" transform="rotate(0,556,262.5)" x="556" y="262.5">cell</text><image transform="rotate(0, 656, 208)" x="656" xlink:href="Skins/Default/current.svg" y="208" /><text font-family="CMU_Serif" font-size="20px" text-anchor="start" transform="rotate(0,692,236.5)" x="692" y="236.5">I1</text><text font-family="CMU_Serif" font-size="20px" text-anchor="start" transform="rotate(0,692,275.5)" x="692" y="275.5">1A</text><image transform="rotate(0, 192, 352)" x="192" xlink:href="Skins/Default/diode.svg" y="352" /><text font-family="CMU_Serif" font-size="20px" text-anchor="start" transform="rotate(0,224,362.5)" x="224" y="362.5">D1</text><text font-family="CMU_Serif" font-size="20px" text-anchor="start" transform="rotate(0,222,418.5)" x="222" y="418.5">diode</text><image transform="rotate(0, 480, 352)" x="480" xlink:href="Skins/Default/LM311.svg" y="352" /><text font-family="CMU_Serif" font-size="20px" text-anchor="start" transform="rotate(0,504,366.5)" x="504" y="366.5">U5</text><text font-family="CMU_Serif" font-size="9px" text-anchor="start" transform="rotate(0,304,390.5)" x="304" y="390.5">LM311</text><text font-family="CMU_Serif" font-size="9px" text-anchor="start" transform="rotate(0,304,406.5)" x="304" y="406.5">LM311</text><image transform="rotate(0, 656, 368)" x="656" xlink:href="Skins/Default/zener.svg" y="368" /><text font-family="CMU_Serif" font-size="20px" text-anchor="start" transform="rotate(0,681,374.5)" x="681" y="374.5">D2</text><text font-family="CMU_Serif" font-size="20px" text-anchor="start" transform="rotate(0,680,438.5)" x="680" y="438.5">zener</text><image transform="rotate(0, 288, 192)" x="288" xlink:href="Skins/Default/arrow_curve.svg" y="192" /><text font-family="CMU_Serif" font-size="20px" text-anchor="start" transform="rotate(0,324,238.5)" x="324" y="238.5">X2</text><text font-family="CMU_Serif" font-size="20px" text-anchor="start" transform="rotate(0,351,253.5)" x="351" y="253.5">arrow_curve</text><image transform="rotate(0, 192, 64)" x="192" xlink:href="Skins/Default/ampmeter.svg" y="64" /><text font-family="CMU_Serif" font-size="20px" text-anchor="start" transform="rotate(-90,176,91.5)" x="176" y="91.5">V3</text><image transform="rotate(0, 544, 384)" x="544" xlink:href="Skins/Default/switch.svg" y="384" /><image transform="rotate(90, 224, 224)" x="224" xlink:href="Skins/Default/ampmeter.svg" y="224" /><text font-family="CMU_Serif" font-size="20px" text-anchor="middle" x="184" y="202">V4</text><image transform="rotate(270, 144, 288)" x="144" xlink:href="Skins/Default/ampmeter.svg" y="288" /><text font-family="CMU_Serif" font-size="20px" text-anchor="middle" x="184" y="266">V5</text><image transform="rotate(90, 624, 128)" x="624" xlink:href="Skins/Default/cell.svg" y="128" /><text font-family="CMU_Serif" font-size="20px" text-anchor="middle" x="580" y="96">V6</text><text font-family="CMU_Serif" font-size="20px" text-anchor="middle" x="580" y="174">cell</text><image transform="rotate(90, 768, 128)" x="768" xlink:href="Skins/Default/current.svg" y="128" /><text font-family="CMU_Serif" font-size="20px" text-anchor="middle" x="728" y="87">I2</text><text font-family="CMU_Serif" font-size="20px" text-anchor="middle" x="728" y="182">1A</text><image transform="rotate(270, 736, 240)" x="736" xlink:href="Skins/Default/current.svg" y="240" /><text font-family="CMU_Serif" font-size="20px" text-anchor="middle" x="776" y="199">I3</text><text font-family="CMU_Serif" font-size="20px" text-anchor="middle" x="776" y="290">1A</text></svg>