<?xml version="1.0" encoding="utf-8" ?>
<svg baseProfile="tiny" height="684" version="1.2" width="912" xmlns="http://www.w3.org/2000/svg" xmlns:ev="http://www.w3.org/2001/xml-events" xmlns:xlink="http://www.w3.org/1999/xlink"><defs /><line stroke="rgb(0%,0%,0%)" stroke-width="1.5" x1="288" x2="288" y1="64" y2="32" /><line stroke="rgb(0%,0%,0%)" stroke-width="1.5" x1="432" x2="432" y1="64" y2="32" /><line stroke="rgb(0%,0%,0%)" stroke-width="1.5" x1="192" x2="192" y1="80" y2="32" /><line stroke="rgb(0%,0%,0%)" stroke-width="1.5" x1="240" x2="240" y1="80" y2="48" /><line stroke="rgb(0%,0%,0%)" stroke-width="1.5" x1="384" x2="384" y1="80" y2="48" /><line stroke="rgb(0%,0%,0%)" stroke-width="1.5" x1="192" x2="192" y1="160" y2="128" /><line stroke="rgb(0%,0%,0%)" stroke-width="1.5" x1="240" x2="240" y1="160" y2="128" /><line stroke="rgb(0%,0%,0%)" stroke-width="1.5" x1="384" x2="384" y1="160" y2="128" /><line stroke="rgb(0%,0%,0%)" stroke-width="1.5" x1="288" x2="288" y1="176" y2="144" /><line stroke="rgb(0%,0%,0%)" stroke-width="1.5" x1="432" x2="432" y1="176" y2="144" /><line stroke="rgb(0%,0%,0%)" stroke-width="1.5" x1="544" x2="496" y1="208" y2="208" /><line stroke="rgb(0%,0%,0%)" stroke-width="1.5" x1="656" x2="608" y1="208" y2="208" /><line stroke="rgb(0%,0%,0%)" stroke-width="1.5" x1="256" x2="256" y1="256" y2="240" /><line stroke="rgb(0%,0%,0%)" stroke-width="1.5" x1="304" x2="304" y1="256" y2="240" /><line stroke="rgb(0%,0%,0%)" stroke-width="1.5" x1="304" x2="256" y1="256" y2="256" /><line stroke="rgb(0%,0%,0%)" stroke-width="1.5" x1="448" x2="448" y1="256" y2="240" /><line stroke="rgb(0%,0%,0%)" stroke-width="1.5" x1="480" x2="480" y1="256" y2="240" /><line stroke="rgb(0%,0%,0%)" stroke-width="1.5" x1="480" x2="448" y1="256" y2="256" /><line stroke="rgb(0%,0%,0%)" stroke-width="1.5" x1="496" x2="496" y1="272" y2="208" /><line stroke="rgb(0%,0%,0%)" stroke-width="1.5" x1="544" x2="496" y1="272" y2="272" /><line stroke="rgb(0%,0%,0%)" stroke-width="1.5" x1="608" x2="608" y1="288" y2="208" /><line stroke="rgb(0%,0%,0%)" stroke-width="1.5" x1="656" x2="608" y1="288" y2="288" /><line stroke="rgb(0%,0%,0%)" stroke-width="1.5" x1="464" x2="464" y1="304" y2="192" /><line stroke="rgb(0%,0%,0%)" stroke-width="1.5" x1="80" x2="48" y1="320" y2="320" /><line stroke="rgb(0%,0%,0%)" stroke-width="1.5" x1="560" x2="480" y1="320" y2="320" /><line stroke="rgb(0%,0%,0%)" stroke-width="1.5" x1="48" x2="48" y1="352" y2="320" /><line stroke="rgb(0%,0%,0%)" stroke-width="1.5" x1="208" x2="176" y1="352" y2="352" /><line stroke="rgb(0%,0%,0%)" stroke-width="1.5" x1="672" x2="640" y1="368" y2="368" /><line stroke="rgb(0%,0%,0%)" stroke-width="1.5" x1="544" x2="544" y1="400" y2="368" /><line stroke="rgb(0%,0%,0%)" stroke-width="1.5" x1="176" x2="176" y1="416" y2="352" /><line stroke="rgb(0%,0%,0%)" stroke-width="1.5" x1="208" x2="176" y1="416" y2="416" /><line stroke="rgb(0%,0%,0%)" stroke-width="1.5" x1="496" x2="496" y1="416" y2="384" /><line stroke="rgb(0%,0%,0%)" stroke-width="1.5" x1="640" x2="640" y1="432" y2="368" /><line stroke="rgb(0%,0%,0%)" stroke-width="1.5" x1="672" x2="640" y1="432" y2="432" /><line stroke="rgb(0%,0%,0%)" stroke-width="1.5" x1="48" x2="48" y1="464" y2="432" /><line stroke="rgb(0%,0%,0%)" stroke-width="1.5" x1="496" x2="496" y1="496" y2="464" /><line stroke="rgb(0%,0%,0%)" stroke-width="1.5" x1="544" x2="544" y1="512" y2="480" /><image transform="rotate(0, 48, 464)" x="48" xlink:href="Skins/Default/GND.svg" y="464" /><image transform="rotate(0, 48, 336)" x="48" xlink:href="Skins/Default/voltage.svg" y="336" /><text font-family="CMU Serif" font-size="20px" text-anchor="start" transform="rotate(0,84,382.5)" x="84" y="382.5">V1</text><text font-family="CMU Serif" font-size="20px" text-anchor="start" transform="rotate(0,84,418.5)" x="84" y="418.5">voltage</text><image transform="rotate(270, 64, 336)" x="64" xlink:href="Skins/Default/ress.svg" y="336" /><text font-family="CMU Serif" font-size="20px" text-anchor="middle" x="120" y="303">R1</text><text font-family="CMU Serif" font-size="20px" text-anchor="middle" x="120" y="352">res</text><image transform="rotate(0, 96, 112)" x="96" xlink:href="Skins/Default/74HCU04 Not.svg" y="112" /><text font-family="CMU Serif" font-size="20px" text-anchor="start" transform="rotate(0,113,134.5)" x="113" y="134.5">U1</text><text font-family="CMU Serif" font-size="11px" text-anchor="start" transform="rotate(0,103,205.5)" x="103" y="205.5">74HCU04</text><text font-family="CMU Serif" font-size="10px" text-anchor="start" transform="rotate(0,103,146.5)" x="103" y="146.5">Vdd</text><text font-family="CMU Serif" font-size="10px" text-anchor="start" transform="rotate(0,103,222.5)" x="103" y="222.5">GND</text><image transform="scale(-1, 1) translate(-512, 0) rotate(0, 256, 48)" x="256" xlink:href="Skins/Default/Amp_Current.svg" y="48" /><text font-family="CMU Serif" font-size="20px" text-anchor="start" transform="rotate(0,292,94.5)" x="292" y="94.5">U2</text><text font-family="CMU Serif" font-size="20px" text-anchor="start" transform="rotate(0,292,130.5)" x="292" y="130.5">Amp_Current</text><image transform="rotate(0, 432, 48)" x="432" xlink:href="Skins/Default/Amp_Transimpedance.svg" y="48" /><text font-family="CMU Serif" font-size="20px" text-anchor="start" transform="rotate(0,468,94.5)" x="468" y="94.5">U3</text><text font-family="CMU Serif" font-size="20px" text-anchor="start" transform="rotate(0,468,130.5)" x="468" y="130.5">Amp_Transimpedance</text><image transform="rotate(0, 256, 240)" x="256" xlink:href="Skins/Default/arrow.svg" y="240" /><text font-family="CMU Serif" font-size="20px" text-anchor="start" transform="rotate(0,277,234)" x="277" y="234">Ir</text><image transform="rotate(0, 448, 240)" x="448" xlink:href="Skins/Default/bypass.svg" y="240" /><image transform="rotate(0, 544, 208)" x="544" xlink:href="Skins/Default/cell.svg" y="208" /><text font-family="CMU Serif" font-size="20px" text-anchor="start" transform="rotate(0,556,228.5)" x="556" y="228.5">V2</text><text font-family="CMU Serif" font-size="20px" text-anchor="start" transform="rotate(0,556,262.5)" x="556" y="262.5">cell</text><image transform="rotate(0, 656, 208)" x="656" xlink:href="Skins/Default/current.svg" y="208" /><text font-family="CMU Serif" font-size="20px" text-anchor="start" transform="rotate(0,692,236.5)" x="692" y="236.5">I1</text><text font-family="CMU Serif" font-size="20px" text-anchor="start" transform="rotate(0,692,275.5)" x="692" y="275.5">1A</text><image transform="rotate(0, 192, 352)" x="192" xlink:href="Skins/Default/diode.svg" y="352" /><text font-family="CMU Serif" font-size="20px" text-anchor="start" transform="rotate(0,224,362.5)" x="224" y="362.5">D1</text><text font-family="CMU Serif" font-size="20px" text-anchor="start" transform="rotate(0,222,418.5)" x="222" y="418.5">diode</text><image transform="rotate(90, 416, 544)" x="416" xlink:href="Skins/Default/LM311.svg" y="544" /><text font-family="CMU Serif" font-size="20px" text-anchor="end" transform="rotate(-90,432,433)" x="432" y="433">U5</text><text font-family="CMU Serif" font-size="20px" text-anchor="end" transform="rotate(-90,409,432)" x="409" y="432">LM311</text><text font-family="CMU Serif" font-size="8px" text-anchor="end" transform="rotate(-90,334,455)" x="334" y="455">O_GND</text><image transform="rotate(90, 784, 384)" x="784" xlink:href="Skins/Default/zener.svg" y="384" /><text font-family="CMU Serif" font-size="20px" text-anchor="middle" x="752" y="374">D2</text><text font-family="CMU Serif" font-size="20px" text-anchor="middle" x="752" y="442">zener</text><image transform="rotate(0, 320, 192)" x="320" xlink:href="Skins/Default/arrow_curve.svg" y="192" /><text font-family="CMU Serif" font-size="20px" text-anchor="start" transform="rotate(0,387,252.5)" x="387" y="252.5">Vr</text><image transform="rotate(0, 192, 64)" x="192" xlink:href="Skins/Default/ampmeter.svg" y="64" /><text font-family="CMU Serif" font-size="20px" text-anchor="start" transform="rotate(-90,176,91.5)" x="176" y="91.5">V3</text><image transform="rotate(0, 544, 384)" x="544" xlink:href="Skins/Default/switch.svg" y="384" /><image transform="rotate(90, 224, 224)" x="224" xlink:href="Skins/Default/ampmeter.svg" y="224" /><text font-family="CMU Serif" font-size="20px" text-anchor="middle" x="184" y="202">V4</text><image transform="rotate(270, 144, 288)" x="144" xlink:href="Skins/Default/ampmeter.svg" y="288" /><text font-family="CMU Serif" font-size="20px" text-anchor="middle" x="184" y="266">V5</text><image transform="rotate(90, 624, 128)" x="624" xlink:href="Skins/Default/cell.svg" y="128" /><text font-family="CMU Serif" font-size="20px" text-anchor="middle" x="580" y="96">V6</text><text font-family="CMU Serif" font-size="20px" text-anchor="middle" x="580" y="174">cell</text><image transform="rotate(90, 768, 128)" x="768" xlink:href="Skins/Default/current.svg" y="128" /><text font-family="CMU Serif" font-size="20px" text-anchor="middle" x="728" y="87">I2</text><text font-family="CMU Serif" font-size="20px" text-anchor="middle" x="728" y="182">1A</text><image transform="rotate(270, 736, 240)" x="736" xlink:href="Skins/Default/current.svg" y="240" /><text font-family="CMU Serif" font-size="20px" text-anchor="middle" x="776" y="199">I3</text><text font-family="CMU Serif" font-size="20px" text-anchor="middle" x="776" y="290">1A</text><image transform="rotate(90, 400, 240)" x="400" xlink:href="Skins/Default/arrow_curve.svg" y="240" /><text font-family="CMU Serif" font-size="20px" text-anchor="end" transform="rotate(0,352,318)" x="352" y="318">Vr</text><image transform="rotate(270, 464, 368)" x="464" xlink:href="Skins/Default/arrow_curve.svg" y="368" /><text font-family="CMU Serif" font-size="20px" text-anchor="start" transform="rotate(0,510,301)" x="510" y="301">Vr</text><image transform="rotate(180, 656, 400)" x="656" xlink:href="Skins/Default/arrow_curve.svg" y="400" /><text font-family="CMU Serif" font-size="20px" text-anchor="end" transform="rotate(0,590,345)" x="590" y="345">Vr</text><image transform="rotate(90, 256, 272)" x="256" xlink:href="Skins/Default/arrow.svg" y="272" /><text font-family="CMU Serif" font-size="20px" text-anchor="end" transform="rotate(-90,277,293)" x="277" y="293">Ir</text><image transform="rotate(180, 352, 208)" x="352" xlink:href="Skins/Default/arrow.svg" y="208" /><text font-family="CMU Serif" font-size="20px" text-anchor="end" transform="rotate(0,331,226)" x="331" y="226">Ir</text><image transform="rotate(270, 272, 416)" x="272" xlink:href="Skins/Default/arrow.svg" y="416" /><text font-family="CMU Serif" font-size="20px" text-anchor="start" transform="rotate(-90,265,395)" x="265" y="395">Ir</text><image transform="rotate(180, 720, 544)" x="720" xlink:href="Skins/Default/zener.svg" y="544" /><text font-family="CMU Serif" font-size="20px" text-anchor="end" transform="rotate(0,696,487)" x="696" y="487">D3</text><text font-family="CMU Serif" font-size="20px" text-anchor="end" transform="rotate(0,696,551)" x="696" y="551">zener</text><image transform="rotate(270, 736, 528)" x="736" xlink:href="Skins/Default/zener.svg" y="528" /><text font-family="CMU Serif" font-size="20px" text-anchor="middle" x="768" y="486">D4</text><text font-family="CMU Serif" font-size="20px" text-anchor="middle" x="768" y="550">zener</text><image transform="rotate(180, 176, 608)" x="176" xlink:href="Skins/Default/LM311.svg" y="608" /><text font-family="CMU Serif" font-size="20px" text-anchor="end" transform="rotate(0,287,631)" x="287" y="631">U6</text><text font-family="CMU Serif" font-size="20px" text-anchor="end" transform="rotate(0,288,608)" x="288" y="608">LM311</text><text font-family="CMU Serif" font-size="8px" text-anchor="end" transform="rotate(0,265,533)" x="265" y="533">O_GND</text><image transform="rotate(270, 32, 480)" x="32" xlink:href="Skins/Default/LM311.svg" y="480" /><text font-family="CMU Serif" font-size="20px" text-anchor="start" transform="rotate(-90,16,591)" x="16" y="591">U8</text><text font-family="CMU Serif" font-size="20px" text-anchor="start" transform="rotate(-90,39,592)" x="39" y="592">LM311</text><text font-family="CMU Serif" font-size="8px" text-anchor="start" transform="rotate(-90,114,569)" x="114" y="569">O_GND</text></svg>