<?xml version="1.0" encoding="utf-8"?>
<!-- Generator: Adobe Illustrator 27.8.1, SVG Export Plug-In . SVG Version: 6.00 Build 0)  -->
<svg version="1.1" id="Layer_1" xmlns="http://www.w3.org/2000/svg" xmlns:xlink="http://www.w3.org/1999/xlink" x="0px" y="0px"
	 viewBox="0 0 32 96" style="enable-background:new 0 0 32 96;" xml:space="preserve">
<style type="text/css">
	.st0{fill:none;stroke:#000000;stroke-width:1.5;stroke-linecap:round;stroke-linejoin:round;stroke-miterlimit:10;}
	.st1{fill:none;stroke:#000000;stroke-width:0.5;stroke-linejoin:round;stroke-miterlimit:10;}
	.st2{stroke:#000000;stroke-width:0.5;stroke-linejoin:round;stroke-miterlimit:10;}
	.st3{fill:none;stroke:#000000;stroke-width:0.3889;stroke-linejoin:round;stroke-miterlimit:10;}
	.st4{stroke:#000000;stroke-width:0.3889;stroke-linejoin:round;stroke-miterlimit:10;}
	.st5{stroke:#000000;stroke-width:0.3333;stroke-linejoin:round;stroke-miterlimit:10;}
</style>
<line class="st0" x1="0" y1="16" x2="0" y2="27"/>
<line class="st0" x1="0" y1="85" x2="0" y2="96"/>
<circle class="st0" cx="0" cy="56" r="29"/>
<g>
	<line class="st1" x1="4" y1="76.1" x2="-4" y2="76.1"/>
	<rect x="-4.5" y="75.6" class="st2" width="9" height="1"/>
</g>
<g>
	<line class="st3" x1="-37.4" y1="38" x2="-43.7" y2="38"/>
	<rect x="-44" y="37.6" class="st4" width="7" height="0.8"/>
</g>
<polygon class="st2" points="4.5,37.9 0.5,37.9 0.5,33.9 -0.5,33.9 -0.5,37.9 -4.5,37.9 -4.5,38.9 -0.5,38.9 -0.5,42.9 0.5,42.9 
	0.5,38.9 4.5,38.9 "/>
<polygon class="st5" points="-37.5,72.8 -40.2,72.8 -40.2,70.1 -40.9,70.1 -40.9,72.8 -43.5,72.8 -43.5,73.3 -40.9,73.3 -40.9,76.1 
	-40.2,76.1 -40.2,73.3 -37.5,73.3 "/>
<polyline class="st0" points="-24.1,39.9 -32,32 -48,32 "/>
<polyline class="st0" points="-48,80 -32,80 -24.1,72.1 "/>
</svg>
