<?xml version="1.0" encoding="utf-8"?>
<!-- Generator: Adobe Illustrator 27.8.1, SVG Export Plug-In . SVG Version: 6.00 Build 0)  -->
<svg version="1.1" id="Layer_1" xmlns="http://www.w3.org/2000/svg" xmlns:xlink="http://www.w3.org/1999/xlink" x="0px" y="0px"
	 viewBox="0 0 32 96" style="enable-background:new 0 0 32 96;" xml:space="preserve">
<style type="text/css">
	.st0{fill:none;stroke:#000000;stroke-width:1.5;stroke-linecap:round;stroke-linejoin:round;stroke-miterlimit:10;}
	.st1{fill:none;stroke:#000000;stroke-width:0.3889;stroke-linejoin:round;stroke-miterlimit:10;}
	.st2{stroke:#000000;stroke-width:0.3889;stroke-linejoin:round;stroke-miterlimit:10;}
	.st3{stroke:#000000;stroke-width:0.3333;stroke-linejoin:round;stroke-miterlimit:10;}
	.st4{stroke:#000000;stroke-width:0.5;stroke-linecap:round;stroke-linejoin:round;stroke-miterlimit:10;}
	.st5{fill:none;stroke:#000000;stroke-width:0.55;stroke-linecap:round;stroke-linejoin:round;stroke-miterlimit:10;}
	.st6{stroke:#000000;stroke-width:0.55;stroke-linecap:round;stroke-linejoin:round;stroke-miterlimit:10;}
</style>
<line class="st0" x1="0" y1="16" x2="0" y2="27"/>
<line class="st0" x1="0" y1="85" x2="0" y2="96"/>
<circle class="st0" cx="0" cy="56" r="29"/>
<g>
	<line class="st1" x1="-37.4" y1="74.1" x2="-43.7" y2="74.1"/>
	<rect x="-44" y="73.7" class="st2" width="7" height="0.8"/>
</g>
<polygon class="st3" points="-37.5,39.1 -40.2,39.1 -40.2,36.4 -40.9,36.4 -40.9,39.1 -43.5,39.1 -43.5,39.7 -40.9,39.7 -40.9,42.4 
	-40.2,42.4 -40.2,39.7 -37.5,39.7 "/>
<polyline class="st0" points="-24.1,39.9 -32,32 -48,32 "/>
<polyline class="st0" points="-48,80 -32,80 -24.1,72.1 "/>
<g>
	<g>
		<polygon class="st4" points="3.7,52.9 0,39.1 -3.7,52.9 		"/>
	</g>
	<g>
		<line class="st5" x1="0" y1="72.4" x2="0" y2="52.9"/>
		<rect x="-0.5" y="52.4" class="st6" width="1" height="20.5"/>
	</g>
</g>
</svg>
