<?xml version="1.0" encoding="utf-8"?>
<!-- Generator: Adobe Illustrator 27.8.1, SVG Export Plug-In . SVG Version: 6.00 Build 0)  -->
<svg version="1.1" id="Layer_1" xmlns="http://www.w3.org/2000/svg" xmlns:xlink="http://www.w3.org/1999/xlink" x="0px" y="0px"
	 viewBox="0 0 32 96" style="enable-background:new 0 0 32 96;" xml:space="preserve">
<style type="text/css">
	.st0{stroke:#000000;stroke-width:0.55;stroke-linecap:round;stroke-linejoin:round;stroke-miterlimit:10;}
	.st1{fill:none;stroke:#000000;stroke-width:1.5;stroke-linecap:round;stroke-linejoin:round;stroke-miterlimit:10;}
	.st2{fill:none;stroke:#000000;stroke-width:0.95;stroke-linecap:square;stroke-miterlimit:10;}
</style>
<path class="st0" d="M16,46.8L-0.8,17.7h33.6L16,46.8z M0.8,18.6L16,44.9l15.2-26.3C31.2,18.6,0.8,18.6,0.8,18.6z"/>
<line class="st1" x1="16" y1="0" x2="16" y2="18.1"/>
<line class="st1" x1="16" y1="64" x2="16" y2="45.8"/>
<path class="st2" d="M78.4-40.7"/>
<polygon class="st0" points="32.5,45.9 16,45.9 16,44.9 31.5,44.9 31.5,41.3 28.4,41.3 28.4,40.4 32.5,40.4 "/>
<polygon class="st0" points="3.6,50.4 -0.5,50.4 -0.5,44.9 16,44.9 16,45.9 0.5,45.9 0.5,49.5 3.6,49.5 "/>
</svg>
