<?xml version="1.0" encoding="utf-8"?>
<!-- Generator: Adobe Illustrator 27.8.1, SVG Export Plug-In . SVG Version: 6.00 Build 0)  -->
<svg version="1.1" id="Layer_1" xmlns="http://www.w3.org/2000/svg" xmlns:xlink="http://www.w3.org/1999/xlink" x="0px" y="0px"
	 viewBox="0 0 96 64" style="enable-background:new 0 0 96 64;" xml:space="preserve">
<style type="text/css">
	.st0{fill:none;stroke:#000000;stroke-width:1.5;stroke-linecap:round;stroke-linejoin:round;stroke-miterlimit:10;}
	.st1{enable-background:new    ;}
</style>
<rect x="-96" y="-42" class="st0" width="192" height="106"/>
<g class="st1">
	<path d="M-14.5,56.1v-0.6h0.5c0.7,0,1.2-0.1,1.3-0.2s0.2-0.4,0.2-0.8V44c0-0.4-0.1-0.6-0.3-0.8S-13.3,43-14,43h-0.5v-0.6h6.3
		c1.5,0,2.7,0.4,3.7,1.1S-3,45-3,46c0,0.7-0.3,1.4-1,2s-1.5,1-2.5,1.3c1.3,0.5,2.1,1.2,2.4,2.3l0.3,1.6c0.1,0.4,0.1,0.7,0.1,0.9
		s0.1,0.4,0.1,0.7s0.1,0.5,0.2,0.6s0.1,0.3,0.2,0.4s0.2,0.2,0.3,0.3s0.3,0.1,0.4,0.1c0.3,0,0.6-0.1,0.8-0.4s0.4-0.7,0.5-1.4
		c0-0.2,0.1-0.3,0.2-0.3c0.2,0,0.3,0.1,0.3,0.3c0,0.2,0,0.4-0.1,0.6s-0.1,0.5-0.3,0.7s-0.3,0.5-0.6,0.6s-0.6,0.3-0.9,0.3
		c-1,0-1.9-0.3-2.5-0.8c-0.3-0.2-0.5-0.5-0.6-0.8s-0.2-0.6-0.2-0.8s0-0.6,0-1.2c0-0.8,0-1.3-0.1-1.7s-0.3-0.7-0.6-1
		c-0.5-0.5-1.1-0.7-1.9-0.7h-2.3v5.1c0,0.4,0.1,0.6,0.2,0.8c0.2,0.1,0.6,0.2,1.3,0.2h0.5v0.6c-0.5,0-1.5-0.1-2.9-0.1
		S-14,56-14.5,56.1z M-10.7,49h2.2c0.7,0,1.3-0.1,1.8-0.3s0.8-0.4,1.1-0.7s0.4-0.6,0.5-0.9s0.1-0.7,0.1-1.1c0-0.5-0.1-0.9-0.2-1.2
		s-0.3-0.6-0.5-0.8s-0.5-0.4-0.7-0.5s-0.5-0.2-0.9-0.3S-7.9,43-8.2,43s-0.6,0-0.9,0c-0.7,0-1,0-1.2,0c-0.1,0-0.3,0.1-0.3,0.1
		s-0.1,0.1-0.1,0.2s0,0.2,0,0.4V49z"/>
	<path d="M0.1,51.6c0-1.3,0.4-2.3,1.2-3.2c0.8-0.9,1.8-1.3,2.9-1.3c1.2,0,2.1,0.4,2.7,1.1s0.9,1.7,0.9,2.8c0,0.2,0,0.3-0.1,0.4
		s-0.2,0.1-0.4,0.1H1.7c0,1.4,0.2,2.4,0.6,3c0.6,0.9,1.3,1.3,2.3,1.3c0.1,0,0.3,0,0.4,0s0.4-0.1,0.7-0.2c0.3-0.1,0.6-0.3,0.9-0.6
		s0.5-0.7,0.7-1.2c0-0.2,0.1-0.3,0.2-0.3c0.2,0,0.3,0.1,0.3,0.2c0,0.1-0.1,0.3-0.2,0.6c-0.1,0.3-0.3,0.6-0.6,0.9
		c-0.2,0.3-0.6,0.6-1.1,0.8c-0.5,0.2-1,0.4-1.5,0.4c-1.2,0-2.2-0.4-3.1-1.3S0.1,53,0.1,51.6z M1.7,51h4.7c0-0.3,0-0.6-0.1-0.9
		S6.3,49.4,6.1,49s-0.4-0.8-0.7-1.1s-0.7-0.4-1.2-0.4c-0.2,0-0.4,0-0.7,0.1s-0.5,0.2-0.8,0.5s-0.5,0.6-0.7,1.1S1.8,50.3,1.7,51z"/>
	<path d="M9,48.1v-0.6h1.6v-2.3c0-1,0.3-1.8,1-2.3s1.4-0.8,2.1-0.8c0.5,0,0.9,0.1,1.3,0.4s0.5,0.6,0.5,1c0,0.3-0.1,0.5-0.2,0.6
		s-0.4,0.2-0.6,0.2c-0.3,0-0.5-0.1-0.6-0.3c-0.2-0.2-0.2-0.4-0.2-0.6c0-0.4,0.2-0.7,0.6-0.8c-0.2-0.1-0.4-0.1-0.7-0.1
		c-0.5,0-0.9,0.2-1.3,0.7c-0.4,0.5-0.6,1.2-0.6,2v2.3h2.4v0.6h-2.3v6.4c0,0.4,0.1,0.6,0.2,0.8c0.2,0.1,0.6,0.2,1.3,0.2h0.4v0.6
		c-0.5,0-1.4-0.1-2.5-0.1c-0.2,0-0.4,0-0.6,0s-0.5,0-0.9,0c-0.3,0-0.6,0-0.8,0v-0.6c0.7,0,1.1,0,1.3-0.1s0.2-0.3,0.2-0.8v-6.5H9z"/>
</g>
<g class="st1">
	<path d="M-86.4,5.5V4.9h0.5c0.7,0,1.2-0.1,1.4-0.2s0.3-0.4,0.3-0.8V-6.6c0-0.4-0.1-0.6-0.3-0.8s-0.6-0.2-1.4-0.2h-0.5v-0.6
		c0.5,0,1.5,0.1,3.1,0.1c1.6,0,2.6,0,3-0.1v0.6h-0.5c-0.7,0-1.2,0.1-1.4,0.2s-0.3,0.4-0.3,0.8V3.9c0,0.4,0.1,0.6,0.3,0.8
		c0.2,0.1,0.6,0.2,1.4,0.2h0.5v0.6c-0.5,0-1.5-0.1-3.1-0.1C-84.9,5.4-85.9,5.4-86.4,5.5z"/>
	<path d="M-79.1,5.5V4.9c0.7,0,1.2,0,1.3-0.1c0.2-0.1,0.2-0.3,0.2-0.8v-5.4c0-0.5-0.1-0.8-0.3-0.9c-0.2-0.1-0.6-0.2-1.3-0.2v-0.6
		l2.8-0.2l0,2.1c0.6-1.4,1.6-2.1,3-2.1c1,0,1.7,0.2,2.1,0.7c0.3,0.3,0.5,0.7,0.5,1.1c0.1,0.4,0.1,1,0.1,2v3.8c0,0.3,0.1,0.5,0.3,0.5
		s0.6,0.1,1.2,0.1v0.6c-1.4,0-2.1-0.1-2.2-0.1c-0.1,0-0.9,0-2.3,0.1V4.9c0.7,0,1.1,0,1.3-0.1S-72,4.4-72,4v-4.7
		c0-0.7-0.1-1.2-0.3-1.6c-0.2-0.4-0.6-0.6-1.2-0.6c-0.7,0-1.3,0.3-1.9,0.9s-0.8,1.4-0.8,2.3V4c0,0.4,0.1,0.7,0.3,0.8
		s0.6,0.1,1.3,0.1v0.6c-1.4,0-2.1-0.1-2.2-0.1C-76.9,5.4-77.7,5.4-79.1,5.5z"/>
</g>
<g class="st1">
	<path d="M53.6-1.3c0-2,0.7-3.8,2-5.2c1.3-1.4,2.9-2.1,4.7-2.1c1.8,0,3.4,0.7,4.7,2.1c1.3,1.4,2,3.2,2,5.2c0,2-0.7,3.7-2,5.1
		c-1.3,1.4-2.9,2.1-4.7,2.1c-1.8,0-3.4-0.7-4.7-2.1C54.2,2.4,53.6,0.7,53.6-1.3z M55.6-1.6c0,1.2,0.1,2.3,0.4,3.3
		c0.3,0.9,0.7,1.7,1.1,2.2c0.5,0.5,1,0.9,1.5,1.1c0.5,0.2,1,0.4,1.5,0.4c0.5,0,1-0.1,1.5-0.4c0.5-0.2,1-0.6,1.5-1.1
		c0.5-0.5,0.9-1.2,1.2-2.2c0.3-1,0.4-2.1,0.4-3.3c0-1-0.1-1.9-0.3-2.6C64.3-5,64-5.6,63.7-6.1C63.4-6.6,63-7,62.6-7.3
		c-0.4-0.3-0.8-0.5-1.2-0.7c-0.4-0.1-0.8-0.2-1.1-0.2c-0.5,0-0.9,0.1-1.4,0.3c-0.5,0.2-1,0.5-1.5,1c-0.5,0.5-0.9,1.1-1.2,2
		S55.6-2.8,55.6-1.6z"/>
	<path d="M68.6-2.5v-0.6l2.9-0.2v6.6c0,0.3,0,0.6,0,0.8c0,0.2,0.1,0.4,0.2,0.6c0.1,0.2,0.3,0.4,0.5,0.5s0.6,0.1,1,0.1
		c0.7,0,1.3-0.3,1.8-0.9c0.4-0.6,0.7-1.3,0.7-2.2v-3.6c0-0.5-0.1-0.8-0.3-0.9s-0.6-0.2-1.3-0.2v-0.6l2.9-0.2v7.1
		c0,0.5,0.1,0.8,0.3,0.9c0.2,0.1,0.6,0.2,1.3,0.2v0.6l-2.9,0.2V3.9c-0.6,1.2-1.4,1.8-2.6,1.8c-0.6,0-1.1-0.1-1.5-0.2
		S71.1,5.2,70.9,5c-0.2-0.2-0.4-0.5-0.5-0.8s-0.2-0.6-0.2-0.9c0-0.2,0-0.5,0-1v-3c0-0.9-0.1-1.4-0.2-1.6S69.4-2.5,68.6-2.5z"/>
	<path d="M79.5-2.5v-0.4c0.6,0,1.1-0.3,1.5-0.7c0.4-0.4,0.7-0.9,0.8-1.5C82-5.6,82-6.2,82-6.8h0.5v3.7h2.9v0.6h-2.9v5.6
		c0,1.4,0.4,2.2,1.3,2.2c0.4,0,0.7-0.2,1-0.6s0.4-0.9,0.4-1.6V1.9h0.5V3c0,0.7-0.2,1.4-0.5,1.9c-0.3,0.5-0.8,0.8-1.5,0.8
		c-0.2,0-0.5,0-0.7-0.1c-0.2-0.1-0.5-0.2-0.8-0.3c-0.3-0.2-0.6-0.4-0.8-0.8c-0.2-0.4-0.3-0.9-0.3-1.5v-5.5H79.5z"/>
</g>
<g class="st1">
	<path d="M-19.4-30.3l0.7-4.1h0.5c0,0.2,0.1,0.3,0.2,0.4c0.1,0.1,0.3,0.1,0.7,0.2s0.9,0.1,1.7,0.1h4.8c0,0.3-0.1,0.5-0.2,0.7
		l-2.7,3.8c-0.6,0.8-1,1.9-1.2,3.4c-0.1,1-0.2,2.1-0.2,3.3v1c0,0.7-0.3,1.1-0.9,1.1s-0.9-0.4-0.9-1.1c0-2.5,0.8-5.1,2.5-7.5
		c0.2-0.3,0.6-0.8,1.2-1.7s1-1.4,1-1.4h-4.1c-1.2,0-1.9,0-2,0.1c-0.1,0.1-0.3,0.7-0.5,1.8H-19.4z"/>
	<path d="M-9.7-24c0-1.5,1-2.7,2.9-3.7c-0.8-0.6-1.3-0.9-1.5-1.1c-0.6-0.7-0.9-1.4-0.9-2.2c0-0.9,0.4-1.7,1.1-2.4
		c0.7-0.6,1.6-1,2.6-1c1,0,1.8,0.3,2.5,0.8c0.7,0.6,1.1,1.3,1.1,2.1c0,1.2-0.8,2.3-2.4,3.1c1.1,0.7,1.7,1.1,2,1.4
		c0.7,0.7,1,1.5,1,2.5c0,1.1-0.4,2-1.2,2.7c-0.8,0.7-1.8,1.1-2.9,1.1c-1.1,0-2.1-0.3-2.9-1S-9.7-22.9-9.7-24z M-8.7-24
		c0,0.8,0.3,1.5,0.9,2.1c0.6,0.6,1.4,0.8,2.2,0.8c0.8,0,1.6-0.2,2.2-0.7s0.9-1.1,0.9-1.8c0-0.3,0-0.5-0.1-0.8
		C-2.6-24.6-2.8-24.8-3-25c-0.2-0.2-0.3-0.3-0.4-0.4s-0.3-0.2-0.5-0.4l-2.5-1.6C-7.9-26.5-8.7-25.3-8.7-24z M-8.3-31.7
		c0,0.6,0.3,1.2,1,1.6l2.5,1.6c1.3-0.8,2-1.7,2-2.8c0-0.7-0.3-1.3-0.8-1.8s-1.2-0.7-1.9-0.7c-0.7,0-1.4,0.2-1.9,0.6
		C-8-32.8-8.3-32.3-8.3-31.7z"/>
	<path d="M-0.3-20.9v-0.6c1,0,1.9-0.4,2.6-1.2l1.9-2.4l-2-2.6c-0.5-0.6-0.8-1-1-1.1s-0.7-0.2-1.3-0.2v-0.6c0.5,0,1.2,0.1,1.9,0.1
		c0.4,0,1.1,0,2.2-0.1v0.6c-0.5,0-0.7,0.2-0.7,0.5c0,0.1,0.1,0.2,0.2,0.4l1.6,2l1.2-1.6c0.2-0.2,0.3-0.5,0.3-0.7
		c0-0.4-0.2-0.6-0.6-0.6v-0.6c0.5,0,1.2,0.1,1.9,0.1c0.6,0,1.1,0,1.6-0.1v0.6c-1,0-1.8,0.4-2.4,1c-0.3,0.3-0.9,1-1.8,2.3l2.7,3.5
		c0.2,0.3,0.4,0.5,0.7,0.5s0.6,0.1,1.2,0.1v0.6C9.2-21,8.5-21,7.9-21c-0.2,0-1,0-2.2,0.1v-0.6c0.2,0,0.4-0.1,0.5-0.2
		s0.2-0.2,0.2-0.3c0-0.1-0.1-0.3-0.4-0.7l-1.5-2c-1,1.2-1.6,1.9-1.7,2.2c-0.1,0.1-0.1,0.2-0.1,0.3c0,0.4,0.2,0.6,0.6,0.6v0.6
		c-1,0-1.6-0.1-1.9-0.1C0.8-21,0.2-21-0.3-20.9z"/>
	<path d="M10.2-20.9v-0.6c1,0,1.9-0.4,2.6-1.2l1.9-2.4l-2-2.6c-0.5-0.6-0.8-1-1-1.1s-0.7-0.2-1.3-0.2v-0.6c0.5,0,1.2,0.1,1.9,0.1
		c0.4,0,1.1,0,2.2-0.1v0.6c-0.5,0-0.7,0.2-0.7,0.5c0,0.1,0.1,0.2,0.2,0.4l1.6,2l1.2-1.6c0.2-0.2,0.3-0.5,0.3-0.7
		c0-0.4-0.2-0.6-0.6-0.6v-0.6c0.5,0,1.2,0.1,1.9,0.1c0.6,0,1.1,0,1.6-0.1v0.6c-1,0-1.8,0.4-2.4,1c-0.3,0.3-0.9,1-1.8,2.3l2.7,3.5
		c0.2,0.3,0.4,0.5,0.7,0.5s0.6,0.1,1.2,0.1v0.6c-0.6,0-1.2-0.1-1.9-0.1c-0.2,0-1,0-2.2,0.1v-0.6c0.2,0,0.4-0.1,0.5-0.2
		S17-22,17-22.1c0-0.1-0.1-0.3-0.4-0.7l-1.5-2c-1,1.2-1.6,1.9-1.7,2.2c-0.1,0.1-0.1,0.2-0.1,0.3c0,0.4,0.2,0.6,0.6,0.6v0.6
		c-1,0-1.6-0.1-1.9-0.1C11.3-21,10.8-21,10.2-20.9z"/>
</g>
</svg>
