<?xml version="1.0" encoding="utf-8"?>
<!-- Generator: Adobe Illustrator 27.8.1, SVG Export Plug-In . SVG Version: 6.00 Build 0)  -->
<svg version="1.1" id="Layer_1" xmlns="http://www.w3.org/2000/svg" xmlns:xlink="http://www.w3.org/1999/xlink" x="0px" y="0px"
	 viewBox="0 0 32 96" style="enable-background:new 0 0 32 96;" xml:space="preserve">
<style type="text/css">
	.st0{fill:none;stroke:#000000;stroke-width:1.5;stroke-linecap:round;stroke-linejoin:round;stroke-miterlimit:10;}
</style>
<g>
	<path class="st0" d="M8.3,40c0-2.3,3.9-3.5,7.7-3.5c6,0,13.5,4.5,13.5,11.4"/>
	<path class="st0" d="M8.3,56c0,2.3,3.9,3.5,7.7,3.5c6,0,13.5-4.5,13.5-11.4"/>
	<path class="st0" d="M8.3,56c0-2.3,3.9-3.5,7.7-3.5c6,0,13.5,4.5,13.5,11.4"/>
	<path class="st0" d="M8.3,72c0,2.3,3.9,3.5,7.7,3.5c6,0,13.5-4.5,13.5-11.4"/>
	<path class="st0" d="M8.3,72c0-2.3,3.9-3.5,7.7-3.5c6,0,13.5,4.5,13.5,11.4"/>
	<path class="st0" d="M16,96v-4.5c6,0,13.5-4.5,13.5-11.4"/>
	<path class="st0" d="M8.3,40c0,2.3,3.9,3.5,7.7,3.5c6,0,13.5-4.5,13.5-11.4"/>
	<path class="st0" d="M16,16v4.5c6,0,13.5,4.5,13.5,11.4"/>
	<path class="st0" d="M8.3,40c0-2.3,4.4-3.5,8.2-3.5"/>
</g>
</svg>
