<?xml version="1.0" encoding="utf-8"?>
<!-- Generator: Adobe Illustrator 27.8.1, SVG Export Plug-In . SVG Version: 6.00 Build 0)  -->
<svg version="1.1" id="Layer_1" xmlns="http://www.w3.org/2000/svg" xmlns:xlink="http://www.w3.org/1999/xlink" x="0px" y="0px"
	 width="32px" height="96px" viewBox="0 0 32 96" style="enable-background:new 0 0 32 96;" xml:space="preserve">
<style type="text/css">
	.st0{fill:none;stroke:#000000;stroke-width:1.4173;stroke-linecap:round;stroke-linejoin:round;stroke-miterlimit:10;}
</style>
<g>
	<path class="st0" d="M7.3,37.9c0-2.6,4.4-3.9,8.7-3.9c6.8,0,15.2,5.1,15.2,12.9"/>
	<path class="st0" d="M7.3,56c0,2.6,4.4,3.9,8.7,3.9c6.8,0,15.2-5.1,15.2-12.9"/>
	<path class="st0" d="M7.3,56c0-2.6,4.4-3.9,8.7-3.9c6.8,0,15.2,5.1,15.2,12.9"/>
	<path class="st0" d="M7.3,74c0,2.6,4.4,3.9,8.7,3.9c6.8,0,15.2-5.1,15.2-12.9"/>
	<path class="st0" d="M7.3,74c0-2.6,4.4-3.9,8.7-3.9c6.8,0,15.2,5.1,15.2,12.9"/>
	<path class="st0" d="M16,96c6.8,0,15.2-5.1,15.2-12.9"/>
	<path class="st0" d="M7.3,37.9c0,2.6,4.4,3.9,8.7,3.9c6.8,0,15.2-5.1,15.2-12.9"/>
	<path class="st0" d="M16,16c6.8,0,15.2,5.1,15.2,12.9"/>
	<path class="st0" d="M7.3,37.9c0-2.6,5-3.9,9.3-3.9"/>
</g>
</svg>
