<?xml version="1.0" encoding="utf-8"?>
<!-- Generator: Adobe Illustrator 27.8.1, SVG Export Plug-In . SVG Version: 6.00 Build 0)  -->
<svg version="1.1" id="Layer_1" xmlns="http://www.w3.org/2000/svg" xmlns:xlink="http://www.w3.org/1999/xlink" x="0px" y="0px"
	 viewBox="0 0 80 96" style="enable-background:new 0 0 80 96;" xml:space="preserve">
<style type="text/css">
	.st0{fill:none;stroke:#000000;stroke-width:1.5;stroke-linecap:round;stroke-linejoin:round;stroke-miterlimit:10;}
	.st1{fill:#FFFFFF;}
</style>
<line class="st0" x1="0" y1="80" x2="21" y2="80"/>
<line class="st0" x1="48" y1="22.9" x2="48" y2="0"/>
<polyline class="st0" points="21.1,79.9 21.1,48 21.1,16 "/>
<path class="st1" d="M48,0"/>
<circle class="st0" cx="37.3" cy="48" r="43.4"/>
<line class="st0" x1="43.1" y1="48" x2="47.9" y2="48"/>
<line class="st0" x1="48" y1="48.1" x2="48" y2="73"/>
<line class="st0" x1="48" y1="73" x2="26.9" y2="73"/>
<line class="st0" x1="26.9" y1="23" x2="47.9" y2="23"/>
<line class="st0" x1="48" y1="96" x2="48" y2="73"/>
<g>
	<line class="st0" x1="26.8" y1="38" x2="26.8" y2="58"/>
	<line class="st0" x1="26.8" y1="13" x2="26.8" y2="33"/>
	<line class="st0" x1="26.8" y1="63" x2="26.8" y2="83"/>
</g>
<path d="M42.7,43.3c0.3-0.1,0.5,0.1,0.5,0.4V48v4.3c0,0.3-0.3,0.5-0.5,0.4L27.5,48L42.7,43.3z"/>
</svg>
