<?xml version="1.0" encoding="utf-8"?>
<!-- Generator: Adobe Illustrator 27.8.1, SVG Export Plug-In . SVG Version: 6.00 Build 0)  -->
<svg version="1.1" id="Layer_1" xmlns="http://www.w3.org/2000/svg" xmlns:xlink="http://www.w3.org/1999/xlink" x="0px" y="0px"
	 viewBox="0 0 111.8 96" style="enable-background:new 0 0 111.8 96;" xml:space="preserve">
<style type="text/css">
	.st0{fill:none;stroke:#000000;stroke-width:1.5;stroke-linecap:round;stroke-linejoin:round;stroke-miterlimit:10;}
	.st1{fill:#FFFFFF;}
</style>
<line class="st0" x1="0" y1="80" x2="21.1" y2="80.1"/>
<line class="st0" x1="48" y1="25" x2="48" y2="0"/>
<path class="st0" d="M26.8,30"/>
<line class="st0" x1="48" y1="96.2" x2="48" y2="48"/>
<path class="st0" d="M48.2,85.7"/>
<line class="st0" x1="26.8" y1="40" x2="26.8" y2="56"/>
<polyline class="st0" points="21.1,80.1 21.1,48 21.1,15.9 "/>
<line class="st0" x1="26.8" y1="14.5" x2="26.8" y2="35.5"/>
<line class="st0" x1="26.8" y1="60.6" x2="26.8" y2="81.6"/>
<path class="st1" d="M48,0"/>
<circle class="st0" cx="37.3" cy="48.3" r="43.4"/>
<g>
	<path d="M27.5,48l15.1-4.9c0.2,0,0.5,0.1,0.5,0.4l0.1,8.8c0,0.2-0.2,0.4-0.5,0.4L27.5,48L27.5,48z"/>
</g>
<line class="st0" x1="48" y1="48" x2="43.1" y2="48"/>
<line class="st0" x1="26.8" y1="71.1" x2="48" y2="71.1"/>
<line class="st0" x1="26.8" y1="25" x2="48" y2="25"/>
</svg>
