<?xml version="1.0" encoding="utf-8"?>
<!-- Generator: Adobe Illustrator 27.8.1, SVG Export Plug-In . SVG Version: 6.00 Build 0)  -->
<svg version="1.1" id="Layer_1" xmlns="http://www.w3.org/2000/svg" xmlns:xlink="http://www.w3.org/1999/xlink" x="0px" y="0px"
	 viewBox="0 0 32 96" style="enable-background:new 0 0 32 96;" xml:space="preserve">
<style type="text/css">
	.st0{fill:none;stroke:#000000;stroke-width:1.5;stroke-linecap:round;stroke-linejoin:round;stroke-miterlimit:10;}
	.st1{fill:none;stroke:#000000;stroke-width:0.5;stroke-linejoin:round;stroke-miterlimit:10;}
	.st2{stroke:#000000;stroke-width:0.5;stroke-linejoin:round;stroke-miterlimit:10;}
</style>
<line class="st0" x1="0" y1="16" x2="0" y2="24"/>
<line class="st0" x1="0" y1="88" x2="0" y2="96"/>
<circle class="st0" cx="0" cy="56" r="32"/>
<g>
	<line class="st1" x1="4" y1="79.1" x2="-4" y2="79.1"/>
	<rect x="-4.5" y="78.6" class="st2" width="9" height="1"/>
</g>
<polygon class="st2" points="4.5,33.4 0.5,33.4 0.5,29.4 -0.5,29.4 -0.5,33.4 -4.5,33.4 -4.5,34.4 -0.5,34.4 -0.5,38.4 0.5,38.4 
	0.5,34.4 4.5,34.4 "/>
<g>
	<path class="st0" d="M-18.4,56L-18.4,56l1.3-1.8l0.7-0.9l0.6-0.7l0.5-0.6l0.5-0.5l0.4-0.5l0.4-0.4l0.4-0.4l0.4-0.3l0.4-0.3l0.3-0.3
		l0.3-0.2l0.3-0.2l0.3-0.2l0.3-0.1l0.3-0.1l0.3-0.1l0.3-0.1l0.2-0.1l0.2,0l0.2,0l0.2,0l0.2,0l0.2,0l0.2,0l0.2,0l0.2,0l0.2,0.1
		l0.3,0.1l0.3,0.1l0.3,0.1l0.3,0.1l0.3,0.2l0.3,0.2l0.3,0.2l0.3,0.3l0.4,0.3l0.4,0.3l0.4,0.4l0.4,0.4l0.4,0.5l0.5,0.5l0.5,0.6
		l0.6,0.7l0.7,0.9l0.9,1.2l1.8,2.4l0.7,0.9l0.6,0.7l0.5,0.6l0.5,0.5l0.4,0.5l0.4,0.4L5,61.9l0.4,0.3l0.4,0.3l0.3,0.2L6.4,63l0.3,0.2
		l0.3,0.2l0.3,0.1l0.3,0.1l0.3,0.1l0.3,0.1l0.2,0l0.2,0l0.2,0l0.2,0l0.2,0l0.2,0l0.2,0l0.2,0l0.2,0l0.2-0.1l0.3-0.1l0.3-0.1l0.3-0.1
		l0.3-0.2l0.3-0.2l0.3-0.2l0.3-0.2l0.4-0.3l0.4-0.3l0.4-0.3l0.4-0.4l0.4-0.4l0.4-0.5l0.5-0.6l0.5-0.6l0.6-0.8l0.7-0.9l1.1-1.4l0,0"
		/>
</g>
</svg>
