<?xml version="1.0" encoding="utf-8"?>
<!-- Generator: Adobe Illustrator 27.8.1, SVG Export Plug-In . SVG Version: 6.00 Build 0)  -->
<svg version="1.1" id="Layer_1" xmlns="http://www.w3.org/2000/svg" xmlns:xlink="http://www.w3.org/1999/xlink" x="0px" y="0px"
	 viewBox="0 0 32 96" style="enable-background:new 0 0 32 96;" xml:space="preserve">
<style type="text/css">
	.st0{fill:none;stroke:#000000;stroke-width:1.5;stroke-linecap:round;stroke-linejoin:round;stroke-miterlimit:10;}
	.st1{fill:none;stroke:#000000;stroke-width:0.5;stroke-linejoin:round;stroke-miterlimit:10;}
	.st2{stroke:#000000;stroke-width:0.5;stroke-linejoin:round;stroke-miterlimit:10;}
</style>
<line class="st0" x1="0" y1="16" x2="0" y2="27"/>
<line class="st0" x1="0" y1="85" x2="0" y2="96"/>
<circle class="st0" cx="0" cy="56" r="29"/>
<g>
	<line class="st1" x1="4" y1="76.1" x2="-4" y2="76.1"/>
	<rect x="-4.5" y="75.6" class="st2" width="9" height="1"/>
</g>
<polygon class="st2" points="4.5,37.9 0.5,37.9 0.5,33.9 -0.5,33.9 -0.5,37.9 -4.5,37.9 -4.5,38.9 -0.5,38.9 -0.5,42.9 0.5,42.9 
	0.5,38.9 4.5,38.9 "/>
<g>
	<path class="st0" d="M-18.4,56L-18.4,56l1.3-1.3l0.7-0.7l0.6-0.5l0.5-0.5l0.5-0.4l0.4-0.4l0.4-0.3l0.4-0.3l0.4-0.2l0.4-0.2l0.3-0.2
		l0.3-0.2l0.3-0.1l0.3-0.1l0.3-0.1l0.3-0.1l0.3-0.1l0.3-0.1l0.2,0l0.2,0l0.2,0l0.2,0l0.2,0l0.2,0l0.2,0l0.2,0l0.2,0l0.2,0l0.3,0.1
		l0.3,0.1l0.3,0.1l0.3,0.1l0.3,0.1l0.3,0.2l0.3,0.2l0.3,0.2l0.4,0.2l0.4,0.2l0.4,0.3l0.4,0.3l0.4,0.3l0.5,0.4l0.5,0.5l0.6,0.5
		l0.7,0.7l0.9,0.9l1.8,1.8l0.7,0.7l0.6,0.5l0.5,0.4l0.5,0.4l0.4,0.3l0.4,0.3L5,60.4l0.4,0.2l0.4,0.2L6.1,61l0.3,0.2l0.3,0.1l0.3,0.1
		l0.3,0.1l0.3,0.1l0.3,0.1l0.3,0l0.2,0l0.2,0l0.2,0l0.2,0l0.2,0l0.2,0l0.2,0l0.2,0l0.2,0l0.2,0l0.3-0.1l0.3-0.1l0.3-0.1l0.3-0.1
		l0.3-0.1l0.3-0.2l0.3-0.2l0.4-0.2l0.4-0.2l0.4-0.3l0.4-0.3l0.4-0.3l0.4-0.4l0.5-0.4l0.5-0.5l0.6-0.6l0.7-0.7l1.1-1l0,0"/>
</g>
</svg>
