<?xml version="1.0" encoding="utf-8"?>
<!-- Generator: Adobe Illustrator 27.8.1, SVG Export Plug-In . SVG Version: 6.00 Build 0)  -->
<svg version="1.1" id="Layer_1" xmlns="http://www.w3.org/2000/svg" xmlns:xlink="http://www.w3.org/1999/xlink" x="0px" y="0px"
	 viewBox="0 0 32 96" style="enable-background:new 0 0 32 96;" xml:space="preserve">
<style type="text/css">
	.st0{fill:none;stroke:#000000;stroke-width:1.5;stroke-linecap:round;stroke-linejoin:round;stroke-miterlimit:10;}
	.st1{fill:none;stroke:#000000;stroke-width:0.5;stroke-linejoin:round;stroke-miterlimit:10;}
	.st2{stroke:#000000;stroke-width:0.5;stroke-linejoin:round;stroke-miterlimit:10;}
</style>
<line class="st0" x1="0" y1="16" x2="0" y2="27"/>
<line class="st0" x1="0" y1="85" x2="0" y2="96"/>
<circle class="st0" cx="0" cy="56" r="29"/>
<g>
	<line class="st1" x1="4" y1="76.1" x2="-4" y2="76.1"/>
	<rect x="-4.5" y="75.6" class="st2" width="9" height="1"/>
</g>
<polygon class="st2" points="4.5,37.9 0.5,37.9 0.5,33.9 -0.5,33.9 -0.5,37.9 -4.5,37.9 -4.5,38.9 -0.5,38.9 -0.5,42.9 0.5,42.9 
	0.5,38.9 4.5,38.9 "/>
<path class="st0" d="M-18.5,56L-18.5,56l1.9-1.9l1-0.9l0.8-0.7L-14,52l0.7-0.5l0.6-0.4l0.6-0.3l0.5-0.2l0.5-0.2l0.5-0.1l0.5-0.1
	l0.5,0l0.5,0l0.5,0l0.5,0.1l0.5,0.1l0.5,0.2l0.5,0.2l0.6,0.3l0.6,0.3l0.6,0.4l0.7,0.5l0.7,0.6l0.8,0.7l1,1l1.6,1.6l1.7,1.7l1,0.9
	l0.8,0.7L4.5,60l0.7,0.5l0.6,0.4l0.6,0.3l0.5,0.2l0.5,0.2l0.5,0.1l0.5,0.1l0.5,0l0.5,0l0.5,0l0.5-0.1l0.5-0.1l0.5-0.2l0.5-0.2
	l0.6-0.3l0.6-0.3l0.6-0.4l0.7-0.5l0.7-0.6l0.8-0.7l1-1l1.4-1.4"/>
</svg>
