<?xml version="1.0" encoding="utf-8"?>
<!-- Generator: Adobe Illustrator 27.8.1, SVG Export Plug-In . SVG Version: 6.00 Build 0)  -->
<svg version="1.1" id="Layer_1" xmlns="http://www.w3.org/2000/svg" xmlns:xlink="http://www.w3.org/1999/xlink" x="0px" y="0px"
	 viewBox="0 0 80 32" style="enable-background:new 0 0 80 32;" xml:space="preserve">
<style type="text/css">
	.st0{fill:none;stroke:#000000;stroke-width:1.5;stroke-linecap:round;stroke-linejoin:round;stroke-miterlimit:10;}
	.st1{fill:#FFFFFF;}
</style>
<line class="st0" x1="16" y1="16" x2="27" y2="16"/>
<polyline class="st0" points="27,16 32,16 60.6,0 "/>
<g>
</g>
<line class="st0" x1="64" y1="16" x2="80" y2="16"/>
<g>
	<circle class="st1" cx="64" cy="16" r="3.6"/>
	<path d="M64,13c1.8,0,3,1.2,3,3s-1.2,3-3,3c-1.8,0-3-1.2-3-3S62.2,13,64,13 M64,11.5c-2.4,0-4.5,2.1-4.5,4.5s2.1,4.5,4.5,4.5
		s4.5-2.1,4.5-4.5S66.4,11.5,64,11.5L64,11.5z"/>
</g>
</svg>
