<?xml version="1.0" encoding="utf-8"?>
<!-- Generator: Adobe Illustrator 27.8.1, SVG Export Plug-In . SVG Version: 6.00 Build 0)  -->
<svg version="1.1" id="Layer_1" xmlns="http://www.w3.org/2000/svg" xmlns:xlink="http://www.w3.org/1999/xlink" x="0px" y="0px"
	 width="32px" height="96px" viewBox="0 0 32 96" style="enable-background:new 0 0 32 96;" xml:space="preserve">
<style type="text/css">
	.st0{fill:none;stroke:#000000;stroke-width:1.5;stroke-linecap:round;stroke-linejoin:round;stroke-miterlimit:10;}
	.st1{stroke:#000000;stroke-width:0.5;stroke-linejoin:round;stroke-miterlimit:10;}
	.st2{fill:none;stroke:#646464;stroke-width:0.4252;stroke-linecap:round;stroke-linejoin:round;stroke-dasharray:2.8346,0.8504;}
	.st3{fill:#646464;}
</style>
<line class="st0" x1="0" y1="16" x2="0" y2="27"/>
<line class="st0" x1="0" y1="85" x2="0" y2="96"/>
<circle class="st0" cx="0" cy="56" r="29"/>
<polyline class="st0" points="-17.4,39.6 -32,32 -48,32 "/>
<polyline class="st0" points="-48,80 -32,80 -17.4,71.8 "/>
<polygon class="st1" points="-34.3,39.2 -38.3,39.2 -38.3,35.2 -39.3,35.2 -39.3,39.2 -43.3,39.2 -43.3,40.2 -39.3,40.2 -39.3,44.2 
	-38.3,44.2 -38.3,40.2 -34.3,40.2 "/>
<polyline class="st0" points="0,27 0,39.6 16,68.2 "/>
<line class="st0" x1="0" y1="72.4" x2="0" y2="85"/>
<g>
	<g>
		<path class="st2" d="M4.4,52.4c-5.4,2.6-9.9,4.1-18,4.4"/>
		<g>
			<polygon class="st3" points="-12.8,55.5 -17.4,56.9 -12.7,57.9 			"/>
		</g>
	</g>
</g>
</svg>
